# xmcd
#
# Track frame offsets: 
#        150
#        12341
#        27215
#        41568
#        52417
#        62487
#        73080
#        86476
#        98834
#        108988
#        120227
#        134439
#        148632
#        161331
#        174436
#        186471
#        196542
#        210096
#        220450
#        233230
#
# Disc length: 3246 seconds
#
# Revision: 0
# Processed by: cddbd v1.5.2PL0 Copyright (c) Steve Scherf et al.
# Submitted via: ExactAudioCopyFreeDBPlugin 1.0
#
DISCID=150cac14
DTITLE=Jerry Reed - Georgia Sunshine and Me And Jerry
DYEAR=2018
DGENRE=Country
TTITLE0=Georgia Sunshine
TTITLE1=Good Friends And Neighbors
TTITLE2=Mule Skinner Blues (Blue Yodel No. 8)
TTITLE3=That's All Part Of Losing
TTITLE4=Eight More Miles To Louisville
TTITLE5=Amos Moses
TTITLE6=Dream Sweet Dreams About Me
TTITLE7=The Preacher And The Bear
TTITLE8=Ugly Woman
TTITLE9=Talk About The Good Times
TTITLE10=Tennessee Stud
TTITLE11=Bridge Over Troubled Water
TTITLE12=MacArthur Park
TTITLE13=Ol' Man River
TTITLE14=Nut Sundae
TTITLE15=Cannonball Rag
TTITLE16=Wreck Of The John B
TTITLE17=Stump Water
TTITLE18=The January-February March
TTITLE19=Something
EXTD=
EXTT0=
EXTT1=
EXTT2=
EXTT3=
EXTT4=
EXTT5=
EXTT6=
EXTT7=
EXTT8=
EXTT9=
EXTT10=
EXTT11=
EXTT12=
EXTT13=
EXTT14=
EXTT15=
EXTT16=
EXTT17=
EXTT18=
EXTT19=
PLAYORDER=
